<svg width="54" height="54" viewBox="0 0 54 54" fill="none" xmlns="http://www.w3.org/2000/svg">
<g id="salud">
<circle id="Ellipse 1" cx="27" cy="27.0002" r="27" fill="#51D289"/>
<path id="Vector" d="M31.6111 18.7502C31.6111 17.4902 33.7778 15.0002 33.7778 15.0002C33.7778 15.0002 35.9444 17.4902 35.9444 18.7502C35.9444 19.9952 34.9767 21.0002 33.7778 21.0002C32.5789 21.0002 31.6111 19.9952 31.6111 18.7502ZM37.3889 31.5002C39.3822 31.5002 41 29.8202 41 27.7502C41 25.2452 37.3889 21.0002 37.3889 21.0002C37.3889 21.0002 33.7778 25.2452 33.7778 27.7502C33.7778 29.8202 35.3956 31.5002 37.3889 31.5002ZM28 30.0002H25.1111V27.0002H22.2222V30.0002H19.3333V33.0002H22.2222V36.0002H25.1111V33.0002H28V30.0002ZM32.3333 27.0002V39.0002C32.3333 40.6502 31.0333 42.0002 29.4444 42.0002H17.8889C16.3 42.0002 15 40.6502 15 39.0002V27.0002C15 22.5452 18.12 18.8552 22.2222 18.1352V15.0002H19.3333V12.0002H28C29.6322 12.0002 31.1056 12.5852 32.3189 13.5152L30.2533 15.6602C29.5889 15.2552 28.8233 15.0002 28 15.0002H25.1111V18.1352C29.2133 18.8552 32.3333 22.5452 32.3333 27.0002ZM29.4444 27.0002C29.4444 23.6852 26.8589 21.0002 23.6667 21.0002C20.4744 21.0002 17.8889 23.6852 17.8889 27.0002V39.0002H29.4444V27.0002Z" fill="#1E1E1E"/>
</g>
</svg>
